# xmcd CD database file
#
# Track frame offsets:
#	150
#	12525
#	30575
#	51057
#	66980
#	83107
#	97020
#	115050
#	127765
#	140082
#	145052
#	171487
#
# Disc length: 2503 seconds
#
# Revision: 0
# Processed by: cddbd v1.5PL3 Copyright (c) Steve Scherf et al.
# Submitted via: CDex 1.51
#
DISCID=a709c50c
DTITLE=b-flower - ペニーアーケードの年
DYEAR=1900
DGENRE=Pop
TTITLE0=ペニーアーケードの年
TTITLE1=Knock! Knock! Knock!
TTITLE2=Graceland
TTITLE3=僕のせいじゃない
TTITLE4=Dear, 1984年の僕
TTITLE5=プロテストソング
TTITLE6=日曜日のミツバチ
TTITLE7=でも それは こわれやすい
TTITLE8=そこは君の場所ではない
TTITLE9=丘の人、森の人
TTITLE10=君がいないくなると淋しくなるよ
TTITLE11=April Rain
EXTD=
EXTT0=
EXTT1=
EXTT2=
EXTT3=
EXTT4=
EXTT5=
EXTT6=
EXTT7=
EXTT8=
EXTT9=
EXTT10=
EXTT11=
PLAYORDER=
